<?xml version="1.0" encoding="UTF-8" standalone="no"?>
<svg
   version="1.0"
   width="1196.9452pt"
   height="558.67822pt"
   viewBox="0 0 1196.9452 558.67822"
   preserveAspectRatio="xMidYMid meet"
   id="svg842"
   sodipodi:docname="logo1_black.svg"
   inkscape:version="1.1.1 (c3084ef, 2021-09-22)"
   xmlns:inkscape="http://www.inkscape.org/namespaces/inkscape"
   xmlns:sodipodi="http://sodipodi.sourceforge.net/DTD/sodipodi-0.dtd"
   xmlns="http://www.w3.org/2000/svg"
   xmlns:svg="http://www.w3.org/2000/svg">
  <defs
     id="defs846" />
  <sodipodi:namedview
     id="namedview844"
     pagecolor="#505050"
     bordercolor="#ffffff"
     borderopacity="1"
     inkscape:pageshadow="0"
     inkscape:pageopacity="0"
     inkscape:pagecheckerboard="1"
     inkscape:document-units="pt"
     showgrid="false"
     inkscape:zoom="0.3175"
     inkscape:cx="796.85039"
     inkscape:cy="359.05512"
     inkscape:window-width="1493"
     inkscape:window-height="828"
     inkscape:window-x="0"
     inkscape:window-y="38"
     inkscape:window-maximized="0"
     inkscape:current-layer="svg842" />
  <metadata
     id="metadata824">
Created by potrace 1.10, written by Peter Selinger 2001-2011
</metadata>
  <g
     transform="matrix(0.1,0,0,-0.1,-77,627.75577)"
     fill="#000000"
     stroke="none"
     id="g840"
     style="fill:#000000">
    <path
       d="m 8575,6264 c -162,-30 -243,-85 -307,-208 -52,-102 -49,53 -53,-2506 -3,-1388 -1,-2396 5,-2425 24,-134 62,-214 133,-284 59,-58 107,-87 182,-113 119,-40 158,-41 1165,-32 531,5 1109,7 1285,3 176,-3 539,-7 806,-8 402,-1 496,1 540,13 77,21 128,41 141,54 7,7 17,12 24,12 26,0 151,129 180,187 70,134 65,-36 62,2043 l -3,1875 -25,42 c -14,23 -239,257 -500,520 -261,263 -522,530 -579,593 -134,149 -167,179 -221,202 -108,46 -116,47 -1485,45 -891,-1 -1309,-5 -1350,-13 z m 2536,-341 c 12,-13 14,-123 14,-624 v -608 l 23,-23 23,-23 608,-3 608,-3 7,-142 c 11,-248 18,-2586 8,-2997 -9,-430 -10,-435 -67,-470 -28,-17 -50,-20 -151,-20 -66,0 -162,5 -214,10 -52,5 -576,10 -1165,12 -588,2 -1321,5 -1627,8 l -558,5 -30,31 c -26,25 -33,43 -41,100 -6,43 -8,956 -7,2407 3,2065 5,2339 18,2347 9,6 499,10 1276,10 1162,0 1263,-1 1275,-17 z m 606,-440 c 131,-136 286,-296 346,-356 59,-60 107,-113 107,-117 0,-17 -46,-20 -354,-20 -262,0 -326,3 -342,14 -18,14 -19,32 -22,370 -3,311 -2,356 11,356 8,0 122,-111 254,-247 z"
       id="path826"
       style="fill:#000000" />
    <path
       d="m 9138,4100 -23,-6 -3,-659 c -1,-363 0,-670 3,-683 5,-22 7,-23 148,-20 l 142,3 3,398 c 2,308 5,397 15,397 6,0 33,-44 59,-98 84,-175 169,-356 190,-407 36,-84 39,-86 142,-83 l 91,3 36,75 c 20,41 54,111 74,155 21,44 62,129 91,189 30,60 54,113 54,118 0,13 40,64 47,60 4,-1 5,-175 4,-386 -2,-266 1,-391 9,-405 10,-20 20,-21 139,-21 96,0 131,3 140,14 8,9 10,196 9,682 l -3,669 -156,3 -157,2 -21,-42 c -12,-24 -26,-50 -31,-58 -9,-16 -78,-153 -228,-454 l -95,-190 -23,30 c -13,16 -24,33 -24,37 0,13 -149,321 -192,397 -4,8 -13,26 -19,40 -38,89 -113,232 -124,236 -18,7 -269,10 -297,4 z"
       id="path828"
       style="fill:#000000" />
    <path
       d="m 10717,4093 c -4,-3 -7,-307 -7,-673 0,-554 2,-669 14,-679 18,-15 550,-17 589,-2 16,6 39,11 52,11 30,0 118,27 175,53 110,51 215,143 257,227 10,19 23,42 28,50 32,46 65,203 65,313 0,249 -80,437 -239,564 -60,48 -165,101 -221,114 -19,4 -53,12 -75,18 -44,12 -627,15 -638,4 z m 641,-291 c 79,-40 105,-60 146,-114 44,-60 64,-111 75,-197 11,-86 -2,-229 -26,-275 -56,-107 -156,-187 -253,-200 -54,-8 -260,-9 -267,-2 -7,7 -3,808 4,819 3,6 57,8 132,5 116,-4 131,-7 189,-36 z"
       id="path830"
       style="fill:#000000" />
    <path
       d="m 5989,4654 c -5,-7 -8,-463 -7,-1135 l 3,-1124 h 210 210 l 5,535 c 5,527 5,536 27,576 25,48 76,95 136,126 36,19 58,22 152,23 102,0 114,-2 167,-29 67,-34 108,-86 131,-167 14,-47 17,-137 22,-560 l 5,-504 h 217 218 l 3,523 c 4,456 2,537 -13,625 -50,299 -196,451 -491,506 -79,15 -143,14 -234,-4 -138,-26 -192,-52 -271,-133 -32,-33 -60,-58 -63,-54 -3,3 -6,179 -6,391 0,212 -4,392 -8,399 -11,17 -399,23 -413,6 z"
       id="path832"
       style="fill:#000000" />
    <path
       d="m 776,4608 c -3,-13 -6,-509 -6,-1104 0,-851 3,-1084 12,-1097 12,-16 35,-17 241,-15 l 228,3 v 360 c 0,238 4,364 11,372 8,10 72,13 272,13 201,1 270,4 301,15 22,8 49,15 60,15 32,0 144,38 199,67 131,70 248,192 308,323 33,73 38,87 54,157 17,81 15,305 -4,378 -60,228 -238,417 -462,489 -122,40 -215,46 -721,46 H 782 Z m 1004,-408 c 69,-27 143,-81 167,-123 59,-99 58,-301 -2,-397 -24,-39 -85,-90 -107,-90 -8,0 -25,-8 -38,-17 -22,-16 -56,-18 -266,-22 -165,-2 -248,1 -262,8 -21,11 -21,16 -19,327 1,173 4,318 7,323 11,18 43,20 250,16 190,-3 221,-6 270,-25 z"
       id="path834"
       style="fill:#000000" />
    <path
       d="m 4905,4064 c -174,-37 -283,-82 -368,-156 -77,-65 -109,-123 -143,-257 -31,-121 -2,-283 67,-386 49,-72 179,-146 316,-179 32,-8 85,-22 118,-31 33,-10 89,-23 125,-30 248,-50 339,-102 339,-195 0,-57 -26,-91 -92,-119 -89,-38 -273,-23 -369,31 -42,24 -108,79 -108,91 -1,7 -9,22 -19,35 -19,21 -25,22 -195,22 -215,0 -212,2 -171,-123 70,-218 211,-325 511,-391 78,-17 242,-20 314,-6 25,5 68,13 95,19 50,9 59,12 145,47 71,29 175,105 213,154 18,25 46,72 62,105 25,52 29,75 33,171 5,117 -6,170 -50,255 -38,73 -117,140 -205,173 -80,30 -256,78 -368,101 -220,46 -317,87 -350,148 -33,61 5,126 100,171 46,22 70,26 140,26 74,0 93,-4 150,-31 64,-30 95,-59 127,-118 l 17,-31 h 171 c 99,0 179,4 191,10 24,13 24,41 0,110 -49,139 -146,255 -257,309 -27,12 -57,27 -66,32 -9,4 -52,18 -94,29 -62,16 -106,20 -218,19 -78,-1 -150,-3 -161,-5 z"
       id="path836"
       style="fill:#000000" />
    <path
       d="m 2657,4012 c -16,-3 -17,-49 -17,-555 0,-368 4,-571 11,-611 31,-162 91,-282 177,-350 116,-93 236,-130 422,-130 124,0 186,11 269,47 38,16 148,120 156,149 4,10 13,18 20,18 11,0 15,-21 17,-92 l 3,-93 h 210 210 l 3,800 c 2,667 0,802 -11,810 -11,8 -320,12 -409,6 -5,-1 -8,-237 -8,-525 0,-296 -4,-527 -9,-530 -5,-3 -12,-18 -15,-32 -10,-38 -54,-93 -96,-119 -69,-43 -231,-58 -323,-30 -98,29 -144,84 -171,202 -14,61 -16,143 -16,540 0,257 -4,474 -8,481 -7,10 -57,13 -204,15 -107,1 -202,1 -211,-1 z"
       id="path838"
       style="fill:#000000" />
  </g>
</svg>
